<svg width="12" height="12" viewBox="0 0 12 12" fill="none" xmlns="http://www.w3.org/2000/svg">
<path fill-rule="evenodd" clip-rule="evenodd" d="M8.27222 0.821971C8.8751 0.219092 9.85287 0.219092 10.4557 0.821971L11.5479 1.9141C12.1507 2.51698 12.1507 3.49475 11.5479 4.09761L5.11738 10.5273C4.79459 10.8509 4.38278 11.0716 3.93406 11.1606L1.66291 11.6151C1.41032 11.6658 1.14833 11.5869 0.965943 11.4038C0.783558 11.2214 0.70394 10.9602 0.754614 10.7068L1.20912 8.43569C1.29887 7.98697 1.51889 7.57589 1.84241 7.25237L8.27222 0.821971ZM9.91005 3.55187L10.4557 3.00545L9.36434 1.91404L8.81792 2.45974L9.91005 3.55187ZM7.72653 3.55187L2.93392 8.34374C2.82608 8.45158 2.75299 8.58909 2.72332 8.73818L2.49605 9.87374L3.63161 9.6472C3.7807 9.6168 3.91822 9.5437 4.02605 9.43587L8.81792 4.64326L7.72653 3.55187Z" fill="#616161"/>
</svg>
