<svg width="75" height="21" viewBox="0 0 75 21" fill="none" xmlns="http://www.w3.org/2000/svg">
<path d="M0 20.65V6.73H2.48V7.93H2.84C3.06667 7.54333 3.42 7.20333 3.9 6.91C4.38 6.60333 5.06667 6.45 5.96 6.45C6.76 6.45 7.5 6.64999 8.18 7.05C8.86 7.43666 9.40667 8.01 9.82 8.77C10.2333 9.53 10.44 10.45 10.44 11.53V11.85C10.44 12.93 10.2333 13.85 9.82 14.61C9.40667 15.37 8.86 15.95 8.18 16.35C7.5 16.7367 6.76 16.93 5.96 16.93C5.36 16.93 4.85333 16.8567 4.44 16.71C4.04 16.5767 3.71333 16.4033 3.46 16.19C3.22 15.9633 3.02667 15.7367 2.88 15.51H2.52V20.65H0ZM5.2 14.73C5.98667 14.73 6.63333 14.4833 7.14 13.99C7.66 13.4833 7.92 12.75 7.92 11.79V11.59C7.92 10.63 7.66 9.90333 7.14 9.41C6.62 8.90333 5.97333 8.65 5.2 8.65C4.42667 8.65 3.78 8.90333 3.26 9.41C2.74 9.90333 2.48 10.63 2.48 11.59V11.79C2.48 12.75 2.74 13.4833 3.26 13.99C3.78 14.4833 4.42667 14.73 5.2 14.73Z" fill="#3F4F85"/>
<path d="M12.7539 16.65V7.73C12.7539 7.73 13.3718 7.95002 14 7.95002C14.6282 7.95002 15.2739 7.73 15.2739 7.73V16.65H14.0139H12.7539ZM14.0139 5.57C13.5606 5.57 13.1739 5.42333 12.8539 5.13C12.5472 4.83666 12.3939 4.45 12.3939 3.97C12.3939 3.49 12.5472 3.10333 12.8539 2.81C13.1739 2.51666 13.5606 2.37 14.0139 2.37C14.4806 2.37 14.8672 2.51666 15.1739 2.81C15.4806 3.10333 15.6339 3.49 15.6339 3.97C15.6339 4.45 15.4806 4.83666 15.1739 5.13C14.8672 5.42333 14.4806 5.57 14.0139 5.57Z" fill="#3F4F85"/>
<path d="M18.0664 16.65V6.73H20.5464V8.03H20.9064C21.0664 7.68333 21.3664 7.35666 21.8064 7.05C22.2464 6.73 22.9131 6.57 23.8064 6.57C24.5797 6.57 25.2531 6.75 25.8264 7.11C26.4131 7.45666 26.8664 7.94333 27.1864 8.57C27.5064 9.18333 27.6664 9.90333 27.6664 10.73V16.65H25.1464V10.93C25.1464 10.1833 24.9597 9.62333 24.5864 9.25C24.2264 8.87666 23.7064 8.69 23.0264 8.69C22.2531 8.69 21.6531 8.95 21.2264 9.47C20.7997 9.97666 20.5864 10.69 20.5864 11.61V16.65H18.0664Z" fill="#3F4F85"/>
<path d="M36.3506 16.93C35.4573 16.93 34.7706 16.7767 34.2906 16.47C33.8106 16.1633 33.4573 15.8233 33.2306 15.45H32.8706V16.65H30.3906V2.65H32.9106V7.87H33.2706C33.4173 7.63 33.6106 7.40333 33.8506 7.19C34.104 6.97666 34.4306 6.80333 34.8306 6.67C35.244 6.52333 35.7506 6.45 36.3506 6.45C37.1506 6.45 37.8906 6.64999 38.5706 7.05C39.2506 7.43666 39.7973 8.01 40.2106 8.77C40.624 9.53 40.8306 10.45 40.8306 11.53V11.85C40.8306 12.93 40.624 13.85 40.2106 14.61C39.7973 15.37 39.2506 15.95 38.5706 16.35C37.8906 16.7367 37.1506 16.93 36.3506 16.93ZM35.5906 14.73C36.364 14.73 37.0106 14.4833 37.5306 13.99C38.0506 13.4833 38.3106 12.75 38.3106 11.79V11.59C38.3106 10.63 38.0506 9.90333 37.5306 9.41C37.024 8.90333 36.3773 8.65 35.5906 8.65C34.8173 8.65 34.1706 8.90333 33.6506 9.41C33.1306 9.90333 32.8706 10.63 32.8706 11.59V11.79C32.8706 12.75 33.1306 13.4833 33.6506 13.99C34.1706 14.4833 34.8173 14.73 35.5906 14.73Z" fill="#3F4F85"/>
<path d="M46.2245 16.93C45.5179 16.93 44.8845 16.81 44.3245 16.57C43.7645 16.3167 43.3179 15.9567 42.9845 15.49C42.6645 15.01 42.5045 14.43 42.5045 13.75C42.5045 13.07 42.6645 12.5033 42.9845 12.05C43.3179 11.5833 43.7712 11.2367 44.3445 11.01C44.9312 10.77 45.5979 10.65 46.3445 10.65H49.0645V10.09C49.0645 9.62333 48.9179 9.24333 48.6245 8.95C48.3312 8.64333 47.8645 8.49 47.2245 8.49C46.5979 8.49 46.1312 8.63666 45.8245 8.93C45.5179 9.21 45.3179 9.57666 45.2245 10.03L42.9045 9.25C43.0645 8.74333 43.3179 8.28333 43.6645 7.87C44.0245 7.44333 44.4979 7.10333 45.0845 6.85C45.6845 6.58333 46.4112 6.45 47.2645 6.45C48.5712 6.45 49.6045 6.77666 50.3645 7.43C51.1245 8.08333 51.5045 9.03 51.5045 10.27V13.97C51.5045 14.37 51.6912 14.57 52.0645 14.57H52.8645V16.65H51.1845C50.6912 16.65 50.2845 16.53 49.9645 16.29C49.6445 16.05 49.4845 15.73 49.4845 15.33V15.31H49.1045C49.0512 15.47 48.9312 15.6833 48.7445 15.95C48.5579 16.2033 48.2645 16.43 47.8645 16.63C47.4645 16.83 46.9179 16.93 46.2245 16.93ZM46.6645 14.89C47.3712 14.89 47.9445 14.6967 48.3845 14.31C48.8379 13.91 49.0645 13.3833 49.0645 12.73V12.53H46.5245C46.0579 12.53 45.6912 12.63 45.4245 12.83C45.1579 13.03 45.0245 13.31 45.0245 13.67C45.0245 14.03 45.1645 14.3233 45.4445 14.55C45.7245 14.7767 46.1312 14.89 46.6645 14.89Z" fill="#3F4F85"/>
<path d="M54.707 16.65V2.65H57.227V16.65H54.707Z" fill="#3F4F85"/>
<path d="M60.0195 16.65V2.65H62.5395V16.65H60.0195Z" fill="#3F4F85"/>
<path d="M68.972 7.09V2.65H70.572L71.412 6.33H71.612L72.452 2.65H74.052V7.09H73.212V3.40999H73.012L72.172 7.09H70.852L70.012 3.40999H69.812V7.09H68.972ZM66.052 7.09V3.40999H64.572V2.65H68.372V3.40999H66.892V7.09H66.052Z" fill="#3F4F85"/>
<circle cx="14" cy="3.84998" r="3.5" fill="#A2302A"/>
</svg>
