<svg width="91" height="25" viewBox="0 0 91 25" fill="none" xmlns="http://www.w3.org/2000/svg">
<path d="M0 24.973V7.86716H3.04759V9.3418H3.48998C3.76852 8.86664 4.20272 8.44883 4.79258 8.08836C5.38243 7.71151 6.22625 7.52308 7.32404 7.52308C8.30713 7.52308 9.21649 7.76885 10.0521 8.2604C10.8877 8.73556 11.5595 9.44011 12.0675 10.374C12.5754 11.308 12.8294 12.4385 12.8294 13.7657V14.159C12.8294 15.4861 12.5754 16.6167 12.0675 17.5506C11.5595 18.4846 10.8877 19.1973 10.0521 19.6888C9.21649 20.164 8.30713 20.4016 7.32404 20.4016C6.58672 20.4016 5.96409 20.3115 5.45616 20.1312C4.96462 19.9674 4.56319 19.7544 4.25188 19.4922C3.95695 19.2137 3.71937 18.9351 3.53913 18.6566H3.09674V24.973H0ZM6.3901 17.6981C7.35681 17.6981 8.15148 17.395 8.7741 16.7887C9.41311 16.1661 9.73262 15.2649 9.73262 14.0852V13.8394C9.73262 12.6597 9.41311 11.7668 8.7741 11.1605C8.13509 10.5379 7.34042 10.2266 6.3901 10.2266C5.43978 10.2266 4.64511 10.5379 4.0061 11.1605C3.36709 11.7668 3.04759 12.6597 3.04759 13.8394V14.0852C3.04759 15.2649 3.36709 16.1661 4.0061 16.7887C4.64511 17.395 5.43978 17.6981 6.3901 17.6981Z" fill="white"/>
<path d="M15.6728 20.0575V9.09603C15.6728 9.09603 16.4321 9.36641 17.2041 9.36641C17.9761 9.36641 18.7696 9.09603 18.7696 9.09603V20.0575H17.2212H15.6728ZM17.2212 6.44168C16.6641 6.44168 16.189 6.26144 15.7957 5.90098C15.4189 5.54051 15.2304 5.06535 15.2304 4.47549C15.2304 3.88564 15.4189 3.41048 15.7957 3.05001C16.189 2.68954 16.6641 2.50931 17.2212 2.50931C17.7947 2.50931 18.2698 2.68954 18.6467 3.05001C19.0235 3.41048 19.212 3.88564 19.212 4.47549C19.212 5.06535 19.0235 5.54051 18.6467 5.90098C18.2698 6.26144 17.7947 6.44168 17.2212 6.44168Z" fill="white"/>
<path d="M22.2012 20.0575V7.86716H25.2488V9.46469H25.6912C25.8878 9.03868 26.2564 8.63725 26.7971 8.2604C27.3378 7.86716 28.1571 7.67054 29.2549 7.67054C30.2052 7.67054 31.0326 7.89174 31.7372 8.33413C32.4581 8.76014 33.0152 9.35819 33.4084 10.1283C33.8017 10.882 33.9983 11.7668 33.9983 12.7826V20.0575H30.9016V13.0284C30.9016 12.1108 30.6722 11.4227 30.2134 10.9639C29.771 10.5051 29.132 10.2757 28.2964 10.2757C27.346 10.2757 26.6087 10.5952 26.0844 11.2343C25.5601 11.8569 25.2979 12.7335 25.2979 13.864V20.0575H22.2012Z" fill="white"/>
<path d="M44.67 20.4016C43.5722 20.4016 42.7284 20.2132 42.1386 19.8363C41.5487 19.4595 41.1145 19.0416 40.836 18.5829H40.3936V20.0575H37.346V2.85339H40.4427V9.26807H40.8851C41.0654 8.97314 41.3029 8.6946 41.5979 8.43244C41.9092 8.17028 42.3106 7.95728 42.8022 7.79343C43.3101 7.6132 43.9327 7.52308 44.67 7.52308C45.6531 7.52308 46.5625 7.76885 47.3981 8.2604C48.2337 8.73556 48.9055 9.44011 49.4135 10.374C49.9214 11.308 50.1753 12.4385 50.1753 13.7657V14.159C50.1753 15.4861 49.9214 16.6167 49.4135 17.5506C48.9055 18.4846 48.2337 19.1973 47.3981 19.6888C46.5625 20.164 45.6531 20.4016 44.67 20.4016ZM43.7361 17.6981C44.6864 17.6981 45.4811 17.395 46.1201 16.7887C46.7591 16.1661 47.0786 15.2649 47.0786 14.0852V13.8394C47.0786 12.6597 46.7591 11.7668 46.1201 11.1605C45.4975 10.5379 44.7028 10.2266 43.7361 10.2266C42.7858 10.2266 41.9911 10.5379 41.3521 11.1605C40.7131 11.7668 40.3936 12.6597 40.3936 13.8394V14.0852C40.3936 15.2649 40.7131 16.1661 41.3521 16.7887C41.9911 17.395 42.7858 17.6981 43.7361 17.6981Z" fill="white"/>
<path d="M56.8037 20.4016C55.9353 20.4016 55.1571 20.2541 54.4689 19.9592C53.7807 19.6479 53.2318 19.2055 52.8222 18.632C52.429 18.0422 52.2324 17.3294 52.2324 16.4938C52.2324 15.6582 52.429 14.9618 52.8222 14.4047C53.2318 13.8313 53.7889 13.4053 54.4935 13.1267C55.2144 12.8318 56.0336 12.6843 56.9512 12.6843H60.2937V11.9962C60.2937 11.4227 60.1135 10.9557 59.753 10.5952C59.3925 10.2184 58.8191 10.03 58.0326 10.03C57.2625 10.03 56.689 10.2102 56.3122 10.5707C55.9353 10.9147 55.6896 11.3653 55.5749 11.9224L52.7239 10.9639C52.9205 10.3413 53.2318 9.776 53.6578 9.26807C54.1002 8.74375 54.6819 8.32594 55.4028 8.01463C56.1401 7.68693 57.0331 7.52308 58.0818 7.52308C59.6875 7.52308 60.9573 7.92451 61.8912 8.72737C62.8252 9.53023 63.2921 10.6936 63.2921 12.2173V16.7641C63.2921 17.2557 63.5215 17.5015 63.9803 17.5015H64.9634V20.0575H62.8989C62.2927 20.0575 61.7929 19.91 61.3997 19.6151C61.0065 19.3202 60.8098 18.927 60.8098 18.4354V18.4108H60.3429C60.2773 18.6074 60.1299 18.8696 59.9005 19.1973C59.6711 19.5086 59.3106 19.7872 58.8191 20.0329C58.3275 20.2787 57.6558 20.4016 56.8037 20.4016ZM57.3444 17.8947C58.2128 17.8947 58.9174 17.6571 59.4581 17.182C60.0152 16.6904 60.2937 16.0432 60.2937 15.2404V14.9946H57.1724C56.5989 14.9946 56.1483 15.1175 55.8206 15.3632C55.4929 15.609 55.3291 15.9531 55.3291 16.3955C55.3291 16.8379 55.5011 17.1983 55.8452 17.4769C56.1893 17.7554 56.689 17.8947 57.3444 17.8947Z" fill="white"/>
<path d="M67.2276 20.0575V2.85339H70.3243V20.0575H67.2276Z" fill="white"/>
<path d="M73.7559 20.0575V2.85339H76.8527V20.0575H73.7559Z" fill="white"/>
<path d="M84.7574 8.30955V2.85339H86.7235L87.7558 7.37562H88.0016L89.0338 2.85339H91V8.30955H89.9677V3.78733H89.722L88.6897 8.30955H87.0676L86.0354 3.78733H85.7896V8.30955H84.7574ZM81.1691 8.30955V3.78733H79.3503V2.85339H84.02V3.78733H82.2013V8.30955H81.1691Z" fill="white"/>
<circle cx="17.2041" cy="4.32801" r="4.30103" fill="#A2302A"/>
</svg>
